<svg id="Capa_1" enable-background="new 0 0 512 512" height="512" viewBox="0 0 512 512" width="512" xmlns="http://www.w3.org/2000/svg">
  <g>
    <path d="m420.092 79.074c-9.114-31.418-33.311-55.616-64.73-64.73-65.933-19.125-132.793-19.125-198.725 0-31.419 9.114-55.616 33.312-64.73 64.73-19.125 65.931-19.125 132.79-.001 198.721 9.046 31.185 33.346 55.611 64.525 64.674 24.396 7.092 48.919 11.556 73.476 13.41v54.438h-29.453c-14.411 0-26.093 11.682-26.093 26.093 0 14.411 11.682 26.093 26.093 26.093h25.248c2.322 0 4.204 1.882 4.204 4.204v19.201c.001 14.41 11.684 26.092 26.094 26.092 14.411 0 26.093-11.682 26.093-26.093v-19.201c0-2.322 1.882-4.204 4.204-4.204h25.248c14.411 0 26.093-11.682 26.093-26.093 0-14.411-11.682-26.093-26.093-26.093h-29.452v-54.438c24.487-1.849 48.942-6.294 73.27-13.351 31.418-9.114 55.616-33.312 64.73-64.73 19.125-65.931 19.125-132.791-.001-198.723zm-50.119 184.186c-4.104 14.148-15.001 25.045-29.149 29.149-56.286 16.327-113.364 16.327-169.648 0-14.148-4.104-25.045-15.001-29.149-29.149-16.327-56.285-16.327-113.363 0-169.648 4.104-14.148 15.001-25.045 29.149-29.149 28.142-8.163 56.483-12.245 84.824-12.245s56.682 4.082 84.824 12.245c14.148 4.104 25.045 15.001 29.149 29.149 16.327 56.285 16.327 113.363 0 169.648z" fill="#e28086"/>
    <g fill="#dd636e">
      <path d="m340.824 292.409c-25.513 7.401-51.189 11.435-76.879 12.127 30.987.834 61.997-3.2 92.769-12.127 14.148-4.104 25.045-15.001 29.149-29.149 16.327-56.285 16.327-113.363 0-169.648-4.104-14.148-15.001-25.045-29.149-29.149-28.142-8.163-56.483-12.245-84.824-12.245-2.648 0-5.297.048-7.945.119 25.691.692 51.367 4.726 76.879 12.126 14.148 4.104 25.045 15.001 29.149 29.149 16.327 56.285 16.327 113.363 0 169.648-4.104 14.148-15.001 25.045-29.149 29.149z"/>
      <path d="m229.907 410.317h15.89v-54.438c-24.557-1.854-49.08-6.319-73.475-13.41-31.179-9.064-55.48-33.49-64.525-64.674-19.124-65.931-19.124-132.79.001-198.721 9.114-31.418 33.311-55.616 64.73-64.73 30.336-8.8 60.869-13.539 91.417-14.241-35.845-.824-71.712 3.915-107.307 14.241-31.419 9.114-55.616 33.312-64.73 64.73-19.125 65.931-19.125 132.79-.001 198.721 9.045 31.185 33.346 55.611 64.525 64.674 24.396 7.092 48.919 11.556 73.476 13.41v54.438z"/>
      <path d="m245.797 485.907v-19.201c0-2.322-1.882-4.204-4.204-4.204h-15.89c2.322 0 4.204 1.882 4.204 4.204v19.201c0 14.411 11.683 26.093 26.093 26.093 2.771 0 5.439-.436 7.945-1.236-10.525-3.361-18.148-13.217-18.148-24.857z"/>
      <path d="m190.252 436.41c0-14.411 11.682-26.093 26.093-26.093h-15.89c-14.411 0-26.093 11.682-26.093 26.093 0 14.411 11.682 26.093 26.093 26.093h15.89c-14.411-.001-26.093-11.683-26.093-26.093z"/>
    </g>
  </g>
</svg>