<svg id="Capa_1" enable-background="new 0 0 512 512" height="512" viewBox="0 0 512 512" width="512" xmlns="http://www.w3.org/2000/svg"><g><path d="m485.332 0h-141.679c-14.728 0-26.668 11.94-26.668 26.668s11.94 26.668 26.668 26.668h77.297l-101.82 101.82c-19.608-16.913-41.145-31.848-64.549-44.727-29.831-16.415-65.448-16.415-95.279 0-62.914 34.621-112.369 84.076-146.991 146.991-16.415 29.83-16.415 65.449 0 95.279 34.622 62.915 84.077 112.369 146.99 146.99 14.916 8.207 31.278 12.311 47.64 12.311s32.724-4.104 47.64-12.311c62.915-34.622 112.37-84.076 146.99-146.99 16.415-29.83 16.415-65.448 0-95.279-12.879-23.404-27.814-44.941-44.727-64.549l101.82-101.821v77.298c0 14.728 11.94 26.668 26.668 26.668s26.668-11.94 26.668-26.668v-141.68c0-14.728-11.94-26.668-26.668-26.668zm-130.489 326.984c-29.672 53.92-72.056 96.304-125.976 125.976-13.728 7.555-30.121 7.555-43.851 0-53.919-29.672-96.304-72.057-125.976-125.977-7.555-13.729-7.555-30.122 0-43.851 29.672-53.92 72.057-96.305 125.976-125.976 13.729-7.555 30.122-7.555 43.851 0 53.92 29.672 96.304 72.057 125.976 125.976 7.555 13.731 7.555 30.123 0 43.852z" fill="#93d8e4"/><g fill="#7ad0df"><path d="m420.95 53.336-101.82 101.82c3.151 2.541 6.272 5.112 9.329 7.75l109.57-109.57z"/><path d="m228.867 452.961c-4.258 2.344-8.774 3.957-13.386 4.847 10.257 1.978 20.995.365 30.465-4.847 53.92-29.672 96.304-72.057 125.976-125.976 7.555-13.729 7.555-30.122 0-43.851-29.672-53.92-72.056-96.304-125.976-125.976-9.47-5.211-20.208-6.825-30.465-4.846 4.612.89 9.127 2.503 13.386 4.846 53.92 29.672 96.304 72.057 125.976 125.976 7.555 13.729 7.555 30.122 0 43.851-29.672 53.919-72.056 96.304-125.976 125.976z"/><path d="m176.381 499.689c-62.914-34.621-112.369-84.076-146.99-146.99-16.415-29.83-16.415-65.448 0-95.279 34.622-62.915 84.077-112.369 146.99-146.99 12.318-6.778 25.624-10.75 39.1-11.93-19.16-1.678-38.667 2.293-56.179 11.93-62.914 34.62-112.369 84.075-146.991 146.99-16.415 29.83-16.415 65.449 0 95.279 34.622 62.915 84.077 112.369 146.99 146.99 14.916 8.207 31.278 12.311 47.64 12.311 2.849 0 5.698-.133 8.539-.381-13.476-1.181-26.781-5.152-39.099-11.93z"/><path d="m475.743 168.348v-94.377l-17.079 17.079v77.298c0 14.728 11.94 26.668 26.668 26.668 2.988 0 5.858-.499 8.539-1.405-10.538-3.562-18.128-13.523-18.128-25.263z"/><path d="m343.653 53.336h17.079c-14.728 0-26.668-11.94-26.668-26.668s11.94-26.668 26.668-26.668h-17.079c-14.728 0-26.668 11.94-26.668 26.668s11.94 26.668 26.668 26.668z"/></g></g></svg>